<?xml version="1.0" encoding="UTF-8"?>
<svg width="100px" height="100px" viewBox="0 0 900 900" version="1.1" xmlns="http://www.w3.org/2000/svg" xmlns:xlink="http://www.w3.org/1999/xlink">
    <!-- Generator: Sketch Beta 44.1 (41454) - http://www.bohemiancoding.com/sketch -->
    <title>icon right no border</title>
    <desc>Created with Sketch Beta.</desc>
    <defs></defs>
    <g id="Page-1" stroke="none" stroke-width="1" fill="none" fill-rule="evenodd">
        <g id="icon-right-no-border">
            <polygon id="Path-4" stroke="#089193" fill="#089193" transform="translate(601.581016, 485.495395) scale(-1, 1) translate(-601.581016, -485.495395) " points="717.108053 544.290714 541.846404 550.006445 486.053979 420.984345"></polygon>
            <polygon id="Path-7" stroke="#2FEBA9" fill="#2FEBA9" transform="translate(384.226702, 714.686238) scale(-1, 1) translate(-384.226702, -714.686238) " points="431.742445 883.63599 485.453404 660.91603 283 545.736486"></polygon>
            <polygon id="Path-3" stroke="#2FEAA9" fill="#2FEAA9" transform="translate(823.097802, 271.117513) scale(-1, 1) translate(-823.097802, -271.117513) " points="767.096645 321.129147 879.098958 291.014819 852.019376 221.10588"></polygon>
            <polygon id="Path-5" stroke="#0DB0B7" fill="#0DB0B7" transform="translate(540.857638, 397.968937) scale(-1, 1) translate(-540.857638, -397.968937) " points="717.291032 379.742164 684.596018 251.636316 364.424243 420.524864 596.119422 544.301557"></polygon>
            <polygon id="Path-6" stroke="#58F4B5" fill="#58F4B5" transform="translate(384.267333, 520.363458) scale(-1, 1) translate(-384.267333, -520.363458) " points="485.36679 659.853669 283.167875 544.633631 403.574813 380.873248"></polygon>
            <polygon id="Path-8" stroke="#235CB3" fill="#235CB3" transform="translate(265.818048, 208.523002) scale(-1, 1) translate(-265.818048, -208.523002) " points="450.827073 99.0058191 167.106132 379.907523 80.8090233 37.1384812"></polygon>
            <polygon id="Path-9" stroke="#114898" fill="#114898" transform="translate(126.645340, 196.051268) scale(-1, 1) translate(-126.645340, -196.051268) " points="235.806053 171.71502 131.652874 139.59063 17.484628 252.511906"></polygon>
            <polygon id="Path-2" stroke="#64FFC3" fill="#64FFC3" transform="translate(701.005874, 321.120337) scale(-1, 1) translate(-701.005874, -321.120337) " points="684.589241 420.691578 793.681506 263.683132 608.330242 221.549096"></polygon>
            <polygon id="wing1" stroke="#2ACFDD" fill="#2ACFDD" transform="translate(557.408772, 228.881900) scale(-1, 1) translate(-557.408772, -228.881900) " points="397.931805 420.13969 663.952214 37.62411 716.885739 251.315521"></polygon>
        </g>
    </g>
</svg>