<?xml version="1.0" encoding="UTF-8" standalone="no"?>
<svg width="102px" height="37px" viewBox="0 0 102 37" version="1.1" xmlns="http://www.w3.org/2000/svg" xmlns:xlink="http://www.w3.org/1999/xlink">
    <!-- Generator: Sketch 39.1 (31720) - http://www.bohemiancoding.com/sketch -->
    <title>logo-text-dark</title>
    <desc>Created with Sketch.</desc>
    <defs>
        <linearGradient x1="0%" y1="0%" x2="100%" y2="100%" id="linearGradient-1">
            <stop stop-color="#00BDFE" offset="0%"></stop>
            <stop stop-color="#00EACE" offset="100%"></stop>
        </linearGradient>
        <path d="M0,31.305361 C0,33.8982925 2.10176546,36 4.69463903,36 L31.305361,36 C33.8982925,36 36,33.8982345 36,31.305361 L36,4.69463903 C36,2.10170747 33.8982345,0 31.305361,0 L4.69463903,0 C2.10170747,0 0,2.10176546 0,4.69463903 L0,31.305361 Z" id="path-2"></path>
        <mask id="mask-3" maskContentUnits="userSpaceOnUse" maskUnits="objectBoundingBox" x="0" y="0" width="36" height="36" fill="white">
            <use xlink:href="#path-2"></use>
        </mask>
    </defs>
    <g id="Page-1" stroke="none" stroke-width="1" fill="none" fill-rule="evenodd">
        <g id="Group-3">
            <path d="M44.1509434,17.1898267 L44.1509434,14.6912385 L46.4084033,14.6912385 L46.4084033,10.9034852 L49.2039786,9.13586702 L49.2039786,14.6912385 L52.7214161,14.6912385 L52.7214161,17.1898267 L49.2039786,17.1898267 L49.2039786,23.8881694 C49.2039786,25.3766974 49.803337,26.1209503 51.0020717,26.1209503 C51.448316,26.1209503 51.8814289,25.9924781 52.3014236,25.7355298 L53.0232857,28.1410854 C52.3582942,28.468916 51.6320644,28.6283987 50.8445745,28.6195384 C49.4970917,28.6195384 48.4208715,28.2075413 47.6158818,27.3835347 C46.8108921,26.5595281 46.4084033,25.3412571 46.4084033,23.728685 L46.4084033,17.1898267 L44.1509434,17.1898267 Z M55.5694905,10.8237431 C55.5694905,10.2832656 55.7576103,9.81589254 56.1338555,9.42160981 C56.5101007,9.02732708 56.9672755,8.83018868 57.5053936,8.83018868 C58.0435117,8.83018868 58.5006865,9.02732708 58.8769317,9.42160981 C59.2531769,9.81589254 59.4412967,10.2832656 59.4412967,10.8237431 C59.4412967,11.3642205 59.2575518,11.8205184 58.8900565,12.1926504 C58.5225612,12.5647824 58.0610115,12.7508456 57.5053936,12.7508456 C56.9497757,12.7508456 56.488226,12.5647824 56.1207307,12.1926504 C55.7532354,11.8205184 55.5694905,11.3642205 55.5694905,10.8237431 L55.5694905,10.8237431 Z M56.1076059,28.4068926 L56.1076059,14.6912385 L58.9031813,14.6912385 L58.9031813,28.4068926 L56.1076059,28.4068926 Z M63.3787267,28.4068926 L63.3787267,9.13586702 L66.174302,9.13586702 L66.174302,20.1535775 L71.0698401,14.6912385 L74.6135271,14.6912385 L68.9436278,21.0041607 L74.9678958,28.4068926 L71.411084,28.4068926 L66.174302,21.8414536 L66.174302,28.4068926 L63.3787267,28.4068926 Z M77.487851,28.4068926 L77.487851,9.13586702 L80.2834263,9.13586702 L80.2834263,20.1535775 L85.1789643,14.6912385 L88.7226514,14.6912385 L83.0527521,21.0041607 L89.0770201,28.4068926 L85.5202083,28.4068926 L80.2834263,21.8414536 L80.2834263,28.4068926 L77.487851,28.4068926 Z M89.4970126,14.6912385 L92.4632099,14.6912385 L95.6525282,23.9147501 L98.7499732,14.6912385 L101.703046,14.6912385 L94.8519175,33.9622642 L92.0563421,33.9622642 L94.261303,27.7290841 L89.4970126,14.6912385 Z" id="tikky-copy-10" fill="url(#linearGradient-1)"></path>
            <use id="Rectangle-2-Copy-11" stroke="url(#linearGradient-1)" mask="url(#mask-3)" stroke-width="4" xlink:href="#path-2"></use>
            <path d="M16.8681473,28.205254 C17.3779109,28.675145 18.1631543,28.6266589 18.6144551,28.0974255 L30.9405531,13.6428004 C31.3880669,13.1180079 31.3367055,12.3199121 30.8258342,11.8602036 C30.3149629,11.4004951 29.5380382,11.4532561 29.0905244,11.9780486 L17.6032523,25.4883447 L12.2397115,20.5443285 C11.7342254,20.0783804 10.9567424,20.1215987 10.5031546,20.6408593 C10.0495668,21.1601198 10.0916386,21.9587892 10.5971247,22.4247372 L16.8681473,28.205254 Z" id="Path-2-Copy-85" fill="url(#linearGradient-1)"></path>
            <path d="M7.18881157,15.472884 C7.20819779,15.4176013 7.26906601,15.2773245 7.37576862,15.0815054 C7.56223681,14.7393015 7.80340449,14.3949178 8.10137306,14.0756762 C8.94085758,13.1762577 10.052506,12.6465843 11.5471698,12.6465843 C13.0418336,12.6465843 14.153482,13.1762577 14.9929666,14.0756762 C15.2909351,14.3949178 15.5321028,14.7393015 15.718571,15.0815054 C15.8252736,15.2773245 15.8861418,15.4176013 15.905528,15.472884 C16.1305625,16.1146039 16.8425323,16.4556072 17.4957572,16.2345362 C18.148982,16.0134653 18.496099,15.3140351 18.2710646,14.6723152 C18.2103445,14.4991625 18.0977498,14.2396771 17.9243828,13.9215164 C17.6440683,13.4070872 17.2853464,12.8948378 16.8370681,12.4145552 C15.5444187,11.0296188 13.7795026,10.1886792 11.5471698,10.1886792 C9.31483701,10.1886792 7.54992087,11.0296188 6.25727154,12.4145552 C5.80899326,12.8948378 5.45027127,13.4070872 5.16995682,13.9215164 C4.99658984,14.2396771 4.88399517,14.4991625 4.82327502,14.6723152 C4.59824061,15.3140351 4.94535757,16.0134653 5.59858246,16.2345362 C6.25180734,16.4556072 6.96377716,16.1146039 7.18881157,15.472884 L7.18881157,15.472884 Z" id="Path-2-Copy-86" fill="url(#linearGradient-1)"></path>
        </g>
    </g>
</svg>